<?xml version="1.0" encoding="UTF-8"?>
<svg width="32px" height="32px" viewBox="0 0 32 32" version="1.1" xmlns="http://www.w3.org/2000/svg" xmlns:xlink="http://www.w3.org/1999/xlink">
    <title>iconsafari-pinned-tab</title>
    <g id="Page-1" stroke="none" stroke-width="1" fill="none" fill-rule="evenodd">
        <g id="Group" transform="translate(-30.000000, -5.000000)">
            <g id="Current-Use" transform="translate(31.000000, 12.000000)" fill="#000000" fill-rule="nonzero">
                <g id="Group-2-Copy-2">
                    <path d="M10.0791367,18 C10.4244604,18 10.7805755,17.9885204 11.147482,17.9655612 C11.5143885,17.942602 11.8705036,17.9119898 12.2158273,17.8737245 C12.5611511,17.8354592 12.8848921,17.7818878 13.1870504,17.7130102 C13.4892086,17.6441327 13.7482014,17.5637755 13.9640288,17.4719388 C14.1510791,17.3954082 14.2769784,17.315051 14.3417266,17.2308673 C14.4064748,17.1466837 14.4676259,17.005102 14.5251799,16.8061224 C14.5827338,16.6071429 14.6402878,16.3507653 14.6978417,16.0369898 C14.7553957,15.7232143 14.8057554,15.4094388 14.8489209,15.0956633 C14.8920863,14.7818878 14.9280576,14.4987245 14.9568345,14.2461735 C14.9856115,13.9936224 15,13.8290816 15,13.752551 C15,13.6607143 14.9856115,13.5803571 14.9568345,13.5114796 C14.9280576,13.442602 14.8776978,13.4081633 14.8057554,13.4081633 C14.7194245,13.4081633 14.6582734,13.4387755 14.6223022,13.5 C14.5863309,13.5612245 14.5539568,13.6836735 14.5251799,13.8673469 C14.4820144,14.0816327 14.3956835,14.3341837 14.2661871,14.625 C14.1366906,14.9158163 13.9784173,15.1683673 13.7913669,15.3826531 C13.3597122,15.9183673 12.8345324,16.2665816 12.2158273,16.4272959 C11.5971223,16.5880102 10.8057554,16.6683673 9.84172662,16.6683673 C9.12230216,16.6683673 8.36330935,16.5 7.5647482,16.1632653 C6.76618705,15.8265306 6.0323741,15.317602 5.36330935,14.6364796 C4.6942446,13.9553571 4.14028777,13.1020408 3.70143885,12.0765306 C3.26258993,11.0510204 3.04316547,9.85714286 3.04316547,8.49489796 C3.04316547,7.37755102 3.17625899,6.30229592 3.44244604,5.26913265 C3.70863309,4.23596939 4.23741007,3.32908163 5.02877698,2.54846939 C5.50359712,2.08928571 6.06115108,1.7372449 6.70143885,1.49234694 C7.34172662,1.24744898 8.13669065,1.125 9.08633094,1.125 C10.0791367,1.125 10.9676259,1.2627551 11.7517986,1.53826531 C12.5359712,1.81377551 13.1079137,2.1505102 13.4676259,2.54846939 C13.7410072,2.85459184 13.9460432,3.19515306 14.0827338,3.57015306 C14.2194245,3.94515306 14.294964,4.30867347 14.3093525,4.66071429 C14.3093525,4.99744898 14.381295,5.16581633 14.5251799,5.16581633 C14.6258993,5.16581633 14.6906475,5.11989796 14.7194245,5.02806122 C14.7482014,4.93622449 14.7697842,4.80612245 14.7841727,4.6377551 C14.7985612,4.53061224 14.8057554,4.37755102 14.8057554,4.17857143 C14.8057554,3.96428571 14.8093525,3.74234694 14.8165468,3.5127551 C14.823741,3.28316327 14.8273381,3.04591837 14.8273381,2.80102041 C14.8273381,2.55612245 14.8345324,2.34183673 14.8489209,2.15816327 C14.8776978,1.76020408 14.9028777,1.47321429 14.9244604,1.29719388 C14.9460432,1.12117347 14.9568345,0.987244898 14.9568345,0.895408163 C14.9568345,0.727040816 14.8489209,0.635204082 14.6330935,0.619897959 C14.3021583,0.589285714 13.9640288,0.531887755 13.618705,0.447704082 C13.2733813,0.363520408 12.8920863,0.290816327 12.4748201,0.229591837 C11.971223,0.153061224 11.4928058,0.0956632653 11.0395683,0.0573979592 C10.5863309,0.0191326531 10.0215827,0 9.34532374,0 C7.73381295,0 6.38848921,0.214285714 5.30935252,0.642857143 C4.23021583,1.07142857 3.30215827,1.66836735 2.52517986,2.43367347 C2.00719424,2.93877551 1.58273381,3.47831633 1.25179856,4.05229592 C0.920863309,4.62627551 0.665467626,5.19260204 0.485611511,5.75127551 C0.305755396,6.30994898 0.179856115,6.8494898 0.107913669,7.36989796 C0.035971223,7.89030612 0,8.34183673 0,8.7244898 C0,9.2755102 0.0395683453,9.84566327 0.118705036,10.434949 C0.197841727,11.0242347 0.338129496,11.6135204 0.539568345,12.2028061 C0.741007194,12.7920918 1.01438849,13.3660714 1.35971223,13.9247449 C1.70503597,14.4834184 2.14388489,15.0076531 2.67625899,15.497449 C3.66906475,16.4158163 4.78057554,17.0625 6.01079137,17.4375 C7.24100719,17.8125 8.5971223,18 10.0791367,18 Z" id="C"></path>
                    <path d="M23.4764398,18 C24.600349,18 25.5735893,17.8498024 26.3961606,17.5494071 C27.2187318,17.2490119 27.8947062,16.8537549 28.4240838,16.3636364 C28.9534613,15.8735178 29.3484584,15.3201581 29.609075,14.7035573 C29.8696917,14.0869565 30,13.4624506 30,12.8300395 C30,12.1343874 29.8615474,11.5098814 29.5846422,10.9565217 C29.3077371,10.4031621 28.9534613,9.91304348 28.521815,9.48616601 C28.0901687,9.05928854 27.6137289,8.69960474 27.0924956,8.40711462 C26.5712624,8.11462451 26.0581734,7.88142292 25.5532286,7.70750988 C25.895288,7.45454545 26.2169866,7.18577075 26.5183246,6.90118577 C26.8196626,6.61660079 27.0843514,6.3083004 27.3123909,5.97628458 C27.5404305,5.64426877 27.7196044,5.28063241 27.8499127,4.88537549 C27.9802211,4.49011858 28.0453752,4.04743083 28.0453752,3.55731225 C28.0453752,3.24110672 27.9802211,2.87747036 27.8499127,2.46640316 C27.7196044,2.05533597 27.4671321,1.66798419 27.0924956,1.30434783 C26.7178592,0.940711462 26.1925538,0.632411067 25.5165794,0.37944664 C24.840605,0.126482213 23.9488074,0 22.8411867,0 C22.4176847,0 21.9656777,0.0118577075 21.4851658,0.0355731225 C21.0046539,0.0592885375 20.4630599,0.0711462451 19.8603839,0.0711462451 C19.7300756,0.0711462451 19.5468296,0.0671936759 19.3106457,0.0592885375 C19.0744619,0.0513833992 18.805701,0.0434782609 18.504363,0.0355731225 C18.203025,0.0276679842 17.8813264,0.0197628458 17.539267,0.0118577075 C17.1972077,0.00395256917 16.8632926,0 16.5375218,0 C16.1791739,0 16,0.0711462451 16,0.213438735 C16,0.355731225 16.1384526,0.42687747 16.4153578,0.42687747 C16.5945317,0.42687747 16.7737056,0.43083004 16.9528796,0.438735178 C17.1320535,0.446640316 17.2705061,0.466403162 17.3682373,0.498023715 C17.7754508,0.577075099 18.0442118,0.719367589 18.1745201,0.924901186 C18.3048284,1.13043478 18.3862711,1.43873518 18.4188482,1.84980237 C18.4351367,2.03952569 18.4473531,2.24110672 18.4554974,2.45454545 C18.4627367,2.64426877 18.4667586,2.89332943 18.467563,3.20172742 L18.4677138,11.0513834 C18.4677138,12.1422925 18.4636417,13.1304348 18.4554974,14.0158103 C18.4473531,14.9011858 18.4107039,15.5968379 18.3455497,16.1027668 C18.2966841,16.4505929 18.2274578,16.743083 18.1378709,16.9802372 C18.0482839,17.2173913 17.8813264,17.3596838 17.6369983,17.4071146 C17.5229785,17.4387352 17.3926702,17.4624506 17.2460733,17.4782609 C17.0994764,17.4940711 16.936591,17.5019763 16.7574171,17.5019763 C16.4968005,17.5019763 16.3664921,17.5652174 16.3664921,17.6916996 C16.3664921,17.8498024 16.5293775,17.9288538 16.8551483,17.9288538 C17.0994764,17.9288538 17.3723095,17.9209486 17.6736475,17.9051383 C17.9749855,17.8893281 18.264107,17.8814229 18.5410122,17.8814229 C18.8342059,17.8656126 19.1029668,17.8577075 19.3472949,17.8577075 L19.9336824,17.8577075 L19.9336824,17.8577075 C20.1128563,17.8577075 20.3694008,17.8616601 20.7033159,17.8695652 C21.0372309,17.8774704 21.3915067,17.8972332 21.7661431,17.9288538 C22.124491,17.944664 22.4624782,17.9604743 22.7801047,17.9762846 C23.0977312,17.9920949 23.3298429,18 23.4764398,18 Z M22.9580838,8.30769231 C22.388024,8.30769231 21.994012,8.28296703 21.7760479,8.23351648 C21.7257485,8.21703297 21.6838323,8.19230769 21.6502994,8.15934066 C21.6167665,8.12637363 21.6,8.06043956 21.6,7.96153846 L21.6,1.8543956 C21.6,1.62362637 21.6754491,1.48351648 21.8263473,1.43406593 C21.960479,1.4010989 22.0862275,1.38461538 22.2035928,1.38461538 L22.6562874,1.38461538 L22.6562874,1.38461538 C23.1928144,1.38461538 23.6580838,1.50824176 24.0520958,1.75549451 C24.4461078,2.00274725 24.7730539,2.31181319 25.0329341,2.68269231 C25.2928144,3.05357143 25.4856287,3.46565934 25.6113772,3.91895604 C25.7371257,4.37225275 25.8,4.80494505 25.8,5.21703297 C25.8,6.42032967 25.4562874,7.29395604 24.7688623,7.83791209 C24.5508982,8.01923077 24.2994012,8.14285714 24.0143713,8.20879121 C23.7293413,8.27472527 23.3772455,8.30769231 22.9580838,8.30769231 Z M24.241048,16.6153846 C23.963901,16.6153846 23.6786026,16.5996503 23.3851528,16.5681818 C23.0917031,16.5367133 22.7819505,16.458042 22.4558952,16.3321678 C22.260262,16.2534965 22.1053857,16.1630245 21.9912664,16.0607517 C21.877147,15.958479 21.7915575,15.8247378 21.7344978,15.659528 C21.6774381,15.4943182 21.6407569,15.2858392 21.6244541,15.0340909 C21.6081514,14.7823427 21.6,14.4597902 21.6,14.0664336 L21.6,8.4729021 C21.6,8.36276224 21.6489083,8.30769231 21.7467249,8.30769231 L22.2358079,8.30769231 L22.2358079,8.30769231 C22.3825328,8.30769231 22.5700146,8.31555944 22.7982533,8.33129371 C23.2710335,8.36276224 23.6622999,8.42176573 23.9720524,8.5083042 C24.2818049,8.59484266 24.5671033,8.72465035 24.8279476,8.89772727 C25.284425,9.21241259 25.66754,9.56643357 25.9772926,9.95979021 C26.2870451,10.3531469 26.5315866,10.7583042 26.710917,11.1752622 C26.8902475,11.5922203 27.0165939,12.0091783 27.0899563,12.4261364 C27.1633188,12.8430944 27.2,13.2325175 27.2,13.5944056 C27.2,14.208042 27.0981077,14.7115385 26.8943231,15.1048951 C26.6905386,15.4982517 26.4378457,15.8050699 26.1362445,16.0253497 C25.8346434,16.2456294 25.5126638,16.3990385 25.1703057,16.4855769 C24.8279476,16.5721154 24.5181951,16.6153846 24.241048,16.6153846 Z" id="B"></path>
                </g>
            </g>
            <g id="arcadiaswx" transform="translate(31.000000, 0.000000)"></g>
        </g>
    </g>
</svg>